<?xml version="1.0" encoding="UTF-8" standalone="no"?>
<!-- Created with Inkscape (http://www.inkscape.org/) -->

<svg
   xmlns:dc="http://purl.org/dc/elements/1.1/"
   xmlns:cc="http://creativecommons.org/ns#"
   xmlns:rdf="http://www.w3.org/1999/02/22-rdf-syntax-ns#"
   xmlns:svg="http://www.w3.org/2000/svg"
   xmlns="http://www.w3.org/2000/svg"
   xmlns:sodipodi="http://sodipodi.sourceforge.net/DTD/sodipodi-0.dtd"
   xmlns:inkscape="http://www.inkscape.org/namespaces/inkscape"
   width="254mm"
   height="254mm"
   viewBox="0 0 254 254"
   version="1.1"
   id="svg8"
   inkscape:version="0.92.4 (5da689c313, 2019-01-14)"
   sodipodi:docname="logo.svg"
   inkscape:export-filename="/home/norm/Softwares/flask_babac/flask_babac/logo640.png"
   inkscape:export-xdpi="96"
   inkscape:export-ydpi="96">
  <defs
     id="defs2" />
  <sodipodi:namedview
     id="base"
     pagecolor="#ffffff"
     bordercolor="#666666"
     borderopacity="1.0"
     inkscape:pageopacity="0.0"
     inkscape:pageshadow="2"
     inkscape:zoom="0.49497475"
     inkscape:cx="487.2445"
     inkscape:cy="466.09026"
     inkscape:document-units="mm"
     inkscape:current-layer="layer1"
     showgrid="false"
     fit-margin-top="0"
     fit-margin-left="0"
     fit-margin-right="0"
     fit-margin-bottom="0"
     inkscape:window-width="1284"
     inkscape:window-height="881"
     inkscape:window-x="0"
     inkscape:window-y="27"
     inkscape:window-maximized="0" />
  <metadata
     id="metadata5">
    <rdf:RDF>
      <cc:Work
         rdf:about="">
        <dc:format>image/svg+xml</dc:format>
        <dc:type
           rdf:resource="http://purl.org/dc/dcmitype/StillImage" />
        <dc:title></dc:title>
      </cc:Work>
    </rdf:RDF>
  </metadata>
  <g
     inkscape:label="Layer 1"
     inkscape:groupmode="layer"
     id="layer1"
     transform="translate(638.62124,144.69825)">
    <g
       id="g9313"
       transform="matrix(0.78066589,0,0,0.78153829,-140.07143,23.878234)"
       inkscape:export-filename="/home/norm/Downloads/logo240.png"
       inkscape:export-xdpi="96"
       inkscape:export-ydpi="96">
      <path
         d="m -343.65641,-9.6548651 c -9.07726,11.369257 -20.35943,2.150168 -20.35943,2.150168 l -9.01751,-10.8068089 c -10.10004,-10.274283 -5.9901,-25.085286 -5.9901,-25.085286 2.1452,-10.737148 0.0522,-20.829734 0.0522,-20.829734 -2.3194,-10.026669 5.42892,-21.776687 5.42892,-21.776687 l 12.05113,-13.51321 c 12.33735,-8.328167 18.89237,2.404019 18.89237,2.404019 22.52201,46.608112 -1.05766,87.4575389 -1.05766,87.4575389 z m -27.58263,49.9776921 c -29.10065,42.812972 -76.26372,42.812972 -76.26372,42.812972 -14.38421,-2.17256 -12.04119,-16.556774 -12.04119,-16.556774 l 4.84659,-13.214563 c 3.84864,-13.879055 18.73308,-17.728929 18.73308,-17.728929 10.3688,-3.510215 18.0649,-10.36884 18.0649,-10.36884 7.5243,-7.021622 21.57382,-6.182971 21.57382,-6.182971 l 17.72643,3.67941 c 13.38129,6.516463 7.36009,17.559695 7.36009,17.559695 z M -475.94271,29.23603 c -45.52181,0 -82.42557,-36.9037141 -82.42557,-82.430535 0,-45.52555 36.90376,-82.429265 82.42557,-82.429265 45.52678,0 82.43301,36.903715 82.43301,82.429265 0,45.5268209 -36.90623,82.430535 -82.43301,82.430535 z m 0,23.127985 c -3.59853,0 -6.5202,-2.922872 -6.52143,-6.523901 0,-3.60227 2.9204,-6.521438 6.52143,-6.521438 3.60478,-0.004 6.52764,2.919168 6.52517,6.521438 -0.002,3.604773 -2.92039,6.523901 -6.52517,6.523901 z m -28.63404,31.870504 c -51.62768,-3.79016 -75.21108,-44.639589 -75.21108,-44.639589 -5.30822,-13.539357 8.31947,-18.701979 8.31947,-18.701979 l 13.86658,-2.407753 c 13.94747,-3.610979 24.71947,7.360089 24.71947,7.360089 8.22735,7.223229 18.01138,10.45593 18.01138,10.45593 9.84496,3.006277 16.14989,15.592445 16.14989,15.592445 l 5.6728,17.191387 c 1.04274,14.8496 -11.52851,15.14947 -11.52851,15.14947 z m -85.81134,-91.1058451 c -12.33856,8.328164 -18.88863,-2.404009 -18.88863,-2.404009 -22.52572,-46.6105839 1.05395,-87.4550759 1.05395,-87.4550759 9.07475,-11.371729 20.35689,-2.150169 20.35689,-2.150169 l 9.02002,10.805609 c 10.09756,10.27177 5.98635,25.084014 5.98635,25.084014 -2.14269,10.737148 -0.0512,20.831006 -0.0512,20.831006 2.32191,10.030372 -5.42892,21.777888 -5.42892,21.777888 z m 34.3305,-0.06847 c 1.80175,3.121977 0.73291,7.11247602 -2.38659,8.911764 -3.12321,1.796775 -7.10874,0.731641 -8.90926,-2.38659098 -1.80175,-3.12321802 -0.73288,-7.10874202 2.38536,-8.91300502 3.12074,-1.8017509 7.10874,-0.7328729 8.91049,2.387832 z m -8.91049,-90.1216239 c -3.11951,-1.804223 -4.18711,-5.79099 -2.38536,-8.91172 1.80052,-3.11825 5.78856,-4.18711 8.90926,-2.38533 3.1195,1.80422 4.18834,5.78975 2.38659,8.907986 -1.80175,3.120745 -5.78975,4.189583 -8.91049,2.389064 z m -15.6721,-49.64423 c 29.09819,-42.81544 76.2625,-42.81544 76.2625,-42.81544 14.38299,2.17256 12.04118,16.55554 12.04118,16.55554 l -4.85032,13.21083 c -3.84614,13.88526 -18.73181,17.72893 -18.73181,17.72893 -10.36761,3.51017 -18.06116,10.37131 -18.06116,10.37131 -7.52558,7.02288 -21.57634,6.18419 -21.57634,6.18419 l -17.72643,-3.67443 c -13.38006,-6.52513 -7.35762,-17.56093 -7.35762,-17.56093 z m 104.69747,-12.04118 c 3.60478,0 6.52764,2.91789 6.52764,6.52143 0,3.59977 -2.92286,6.52016 -6.52764,6.52016 -3.59853,0 -6.5202,-2.92039 -6.5202,-6.52016 0,-3.60354 2.92167,-6.52143 6.5202,-6.52143 z m 91.41443,158.32966392 c -1.80052,3.12073498 -5.78728,4.18587898 -8.91172,2.39156598 -3.1145,-1.80174998 -4.18461,-5.792259 -2.38163,-8.914236 1.79929,-3.1207049 5.78729,-4.1895829 8.90553,-2.387822 3.12073,1.804253 4.19084,5.789787 2.38782,8.91049202 z M -386.9136,-97.058898 c -3.11823,1.798017 -7.10751,0.731642 -8.90803,-2.391566 -1.80298,-3.118246 -0.73537,-7.108746 2.38536,-8.907986 3.12071,-1.80179 7.10998,-0.73292 8.90799,2.38532 1.80302,3.12074 0.73291,7.107507 -2.38532,8.914232 z m -60.39256,-93.567112 c 51.6264,3.79641 75.20981,44.64087 75.20981,44.64087 5.30945,13.54305 -8.31574,18.70571 -8.31574,18.70571 l -13.8641,2.40648 c -13.94745,3.60848 -24.72318,-7.35761 -24.72318,-7.35761 -8.22612,-7.22443 -18.01262,-10.45966 -18.01262,-10.45966 -9.84499,-3.00129 -16.14368,-15.58871 -16.14368,-15.58871 l -5.67903,-17.19386 c -1.04024,-14.84712 11.52854,-15.15322 11.52854,-15.15322 z m 132.26884,138.863717 1.6425,-0.605972 0.13685,-3.026179 -1.4683,-0.578594 c -3.22274,-0.638316 -5.62425,-2.537136 -6.70681,-3.559986 -0.11217,-2.554554 -0.27371,-5.096665 -0.49772,-7.627585 1.6176,-3.159325 5.81091,-4.783133 5.81091,-4.783133 l 1.54297,-0.801343 -0.23632,-3.021203 -1.53052,-0.393174 c -3.26009,-0.227854 -5.86068,-1.788096 -7.0801,-2.670282 -0.42308,-2.542141 -0.90835,-5.063121 -1.45583,-7.561707 1.23186,-3.318538 5.15144,-5.430157 5.15144,-5.430157 l 1.43094,-0.996674 -0.62216,-2.966457 -1.55538,-0.195411 c -3.24766,0.181657 -6.01003,-1.026544 -7.34143,-1.747004 -0.74661,-2.478656 -1.54293,-4.932446 -2.41397,-7.355126 0.82123,-3.43304 4.42975,-6.01746 4.42975,-6.01746 l 1.29408,-1.16344 -0.98302,-2.86566 -1.58024,0.002 c -3.19789,0.58608 -6.0847,-0.27124 -7.50319,-0.81502 -1.04524,-2.36046 -2.15267,-4.68857 -3.30987,-6.9806 0.37328,-3.51766 3.63338,-6.53384 3.63338,-6.53384 l 1.14475,-1.32146 -1.33141,-2.72132 -1.56783,0.19787 c -3.11075,0.98801 -6.09711,0.49899 -7.55296,0.1305 -1.33139,-2.19869 -2.71758,-4.36007 -4.15472,-6.49158 -0.0773,-3.53508 2.78597,-6.95444 2.78597,-6.95444 l 0.97057,-1.44712 -1.66737,-2.53717 -1.51929,0.39448 c -2.97888,1.37866 -6.02495,1.25299 -7.51314,1.07508 -1.58278,-2.0021 -3.2153,-3.95816 -4.89511,-5.87317 -0.5475,-3.51765 1.88636,-7.29289 1.88636,-7.29289 l 0.77767,-1.5641 -1.96724,-2.3032 -1.46205,0.58357 c -2.79596,1.74577 -5.83956,1.99835 -7.33395,2.00459 -1.81671,-1.78186 -3.67571,-3.51642 -5.577,-5.20992 -0.988,-3.41688 0.95685,-7.47705 0.95685,-7.47705 l 0.57613,-1.64373 -2.24226,-2.03945 -1.37867,0.76028 c -2.54338,2.07549 -5.52599,2.71261 -7.01044,2.9042 -2.03196,-1.54292 -4.10126,-3.04232 -6.20913,-4.49069 -1.39235,-3.26507 0.0211,-7.51313 0.0211,-7.51313 l 0.3646,-1.70348 -2.47868,-1.74575 -1.27539,0.92701 c -2.24724,2.36667 -5.10044,3.36959 -6.56249,3.75778 -2.22234,-1.2928 -4.48203,-2.52591 -6.77278,-3.71051 -1.75947,-3.06597 -0.89718,-7.41734 -0.89718,-7.41734 l 0.15061,-1.73829 -2.67899,-1.41976 -1.14726,1.08255 c -1.92121,2.60807 -4.60518,3.96812 -6.01249,4.53677 -2.37912,-1.00045 -4.79184,-1.94736 -7.22821,-2.83578 -2.11532,-2.81839 -1.80422,-7.23442 -1.80422,-7.23442 l -0.0709,-1.7408 -2.83454,-1.07011 -1.00292,1.21444 c -1.58152,2.83578 -4.07886,4.51687 -5.40406,5.26096 -2.47615,-0.69432 -4.97472,-1.3277 -7.50068,-1.89634 -2.46747,-2.52596 -2.71261,-6.96812 -2.71261,-6.96812 l -0.28747,-1.71343 -2.949,-0.71048 -0.84239,1.3314 c -1.22066,3.03115 -3.51145,5.01952 -4.72589,5.91296 -2.52098,-0.37328 -5.05811,-0.68187 -7.61641,-0.93199 -2.79722,-2.18876 -3.60477,-6.58986 -3.60477,-6.58986 l -0.50023,-1.67484 -3.00999,-0.33473 -0.67066,1.41853 c -0.83992,3.18542 -2.87933,5.45379 -3.96933,6.48535 -1.12613,-0.0247 -2.25349,-0.0409 -3.38704,-0.0409 -1.41977,0 -2.83949,0.0211 -4.25427,0.0586 -3.05852,-1.82041 -4.4136,-6.09835 -4.4136,-6.09835 l -0.70674,-1.58899 -3.02868,0.0423 -0.4865,1.49193 c -0.4318,3.24641 -2.16012,5.74496 -3.1108,6.91338 -2.56573,0.26383 -5.11162,0.59104 -7.63757,0.97554 -3.23146,-1.43719 -5.09793,-5.47623 -5.09793,-5.47623 l -0.90462,-1.49439 -2.99626,0.42679 -0.29629,1.54169 c -0.0247,3.25389 -1.40237,5.92792 -2.20494,7.21576 -2.52221,0.58858 -5.02326,1.2381 -7.49945,1.94858 -3.37582,-1.03649 -5.71759,-4.78809 -5.71759,-4.78809 l -1.08132,-1.36626 -2.92287,0.79386 -0.0984,1.57033 c 0.38573,3.21905 -0.64332,6.05109 -1.27917,7.43102 -2.42764,0.90338 -4.82168,1.86023 -7.18834,2.87561 -3.48408,-0.59726 -6.2813,-4.03654 -6.2813,-4.03654 l -1.24556,-1.21941 -2.79719,1.15468 0.0959,1.57158 c 0.78766,3.1618 0.11323,6.10705 -0.3446,7.55295 -2.27834,1.18958 -4.52307,2.4339 -6.73295,3.73419 -3.54132,-0.14179 -6.77031,-3.21531 -6.77031,-3.21531 l -1.38738,-1.05643 -2.63297,1.49691 0.29629,1.5442 c 1.18456,3.05852 0.87226,6.0847 0.59725,7.5654 -2.09415,1.45835 -4.1535,2.96022 -6.17425,4.52184 -3.54132,0.32097 -7.15231,-2.34306 -7.15231,-2.34306 l -1.50811,-0.86726 -2.42265,1.81169 0.48527,1.4969 c 1.56287,2.89055 1.62755,5.94284 1.54047,7.43974 -1.89385,1.70348 -3.74787,3.45049 -5.5546,5.24726 -3.47536,0.7665 -7.3912,-1.42723 -7.3912,-1.42723 l -1.61015,-0.6769 -2.17381,2.10788 0.66696,1.42222 c 1.91127,2.66532 2.36046,5.67407 2.46123,7.17471 -1.67111,1.9349 -3.29491,3.90835 -4.87022,5.9229 -3.34595,1.18584 -7.49447,-0.49399 -7.49447,-0.49399 l -1.68106,-0.46911 -1.89385,2.36046 0.84363,1.32766 c 2.22485,2.40152 3.04608,5.32319 3.33851,6.80143 -1.42103,2.13023 -2.79098,4.29906 -4.10623,6.50274 -3.17298,1.58028 -7.48079,0.44174 -7.48079,0.44174 l -1.72461,-0.25502 -1.58402,2.57823 1.00045,1.21193 c 2.49857,2.09419 3.68064,4.87272 4.16097,6.30863 -1.14725,2.29828 -2.23852,4.63507 -3.27753,7.0005 -2.94529,1.95356 -7.34266,1.36128 -7.34266,1.36128 l -1.74327,-0.0384 -1.24929,2.75988 1.14602,1.07879 c 2.73621,1.75945 4.25554,4.35884 4.91501,5.72259 -0.84987,2.42889 -1.64,4.886413 -2.3704,7.371306 -2.679,2.300703 -7.11372,2.265857 -7.11372,2.265857 l -1.73333,0.186592 -0.89342,2.890519 1.27291,0.92578 c 2.93906,1.404833 4.77693,3.801375 5.60067,5.074302 -0.53384,2.507296 -1.00666,5.028235 -1.41479,7.572848 -2.36917,2.640442 -6.79394,3.168034 -6.79394,3.168034 l -1.69724,0.395687 -0.52386,2.982613 1.37871,0.757779 c 3.11449,1.035263 5.2485,3.206593 6.2091,4.360048 -0.21163,2.528457 -0.3596,5.070558 -0.44672,7.630127 -2.00831,2.941521 -6.36835,4.025324 -6.36835,4.025324 l -1.63502,0.609706 -0.14321,3.022435 1.46205,0.582338 c 3.22652,0.635843 5.61805,2.532161 6.71307,3.552499 0.10581,2.564544 0.27265,5.106645 0.49648,7.636343 -1.62631,3.159285 -5.80347,4.775655 -5.80347,4.775655 l -1.5479,0.806308 0.23631,3.019932 1.5243,0.391983 c 3.2576,0.227854 5.85449,1.786825 7.08385,2.664036 0.42432,2.548348 0.90835,5.071839 1.45835,7.575391 -1.23561,3.314834 -5.14648,5.426423 -5.14648,5.426423 l -1.4322,0.994201 0.60971,2.966427 1.56285,0.196462 c 3.24267,-0.183058 6.00132,1.0240819 7.33769,1.7432709 0.7466,2.482389 1.55164,4.934948 2.41647,7.368798 -0.8225,3.425599 -4.42353,6.001324 -4.42353,6.001324 l -1.29409,1.167139 0.97678,2.865653 h 1.57407 c 3.19414,-0.587313 6.08343,0.267715 7.50068,0.812555 1.05018,2.3604541 2.15515,4.6984861 3.31858,6.9954851 -0.37952,3.510215 -3.63464,6.522669 -3.63464,6.522669 l -1.13854,1.315251 1.32893,2.721285 1.56162,-0.19541 c 3.10456,-0.986724 6.08467,-0.49648 7.55296,-0.133327 1.33387,2.204914 2.71632,4.372501 4.15596,6.500276 0.0773,3.538815 -2.78597,6.946985 -2.78597,6.946985 l -0.96684,1.453373 1.66363,2.528417 1.5218,-0.390701 c 2.97514,-1.371229 6.01373,-1.254268 7.50816,-1.075084 1.58402,2.002096 3.22274,3.968105 4.90257,5.888057 0.54255,3.510206 -1.88761,7.280478 -1.88761,7.280478 l -0.77644,1.559122 1.96602,2.303205 1.46204,-0.576132 c 2.78726,-1.744501 5.82712,-2.002096 7.32775,-2.00583 1.81795,1.783092 3.68065,3.521397 5.58695,5.213665 0.98175,3.419382 -0.9606,7.469602 -0.9606,7.469602 l -0.57362,1.646201 2.23848,2.039457 1.37994,-0.757817 c 2.53964,-2.077968 5.51354,-2.711338 7.003,-2.909182 2.03567,1.551644 4.1087,3.053549 6.21782,4.500689 1.38737,3.26506 -0.0212,7.50442 -0.0212,7.50442 l -0.36461,1.70345 2.47618,1.74454 1.27293,-0.92701 c 2.246,-2.35673 5.09423,-3.36461 6.55752,-3.75659 2.22607,1.29659 4.48823,2.53717 6.78646,3.71923 1.75326,3.06349 0.89093,7.40488 0.89093,7.40488 l -0.14673,1.73834 2.67776,1.42099 1.14475,-1.07882 c 1.92121,-2.60309 4.59774,-3.96063 6.00629,-4.53426 2.38161,1.00539 4.79681,1.95107 7.23691,2.83826 2.11285,2.81961 1.80176,7.22323 1.80176,7.22323 l 0.0734,1.740761 2.83204,1.07386 1.00167,-1.21195 c 1.58029,-2.828331 4.07386,-4.514351 5.39906,-5.257221 2.47992,0.69557 4.98471,1.32644 7.51189,1.89632 2.4625,2.534661 2.70888,6.956941 2.70888,6.956941 l 0.28852,1.72214 2.9453,0.708 0.84112,-1.32766 c 1.22443,-3.02617 3.50772,-5.01458 4.72092,-5.910491 2.52719,0.372051 5.0718,0.683151 7.6351,0.931991 2.78848,2.19496 3.5948,6.58862 3.5948,6.58862 l 0.50269,1.67111 3.00875,0.33226 0.67193,-1.42596 c 0.83742,-3.17052 2.87309,-5.43888 3.96063,-6.4729 1.12736,0.0282 2.25472,0.0462 3.38577,0.0462 1.43221,0 2.85444,-0.0247 4.27173,-0.0635 3.05228,1.82291 4.40484,6.09465 4.40484,6.09465 l 0.70678,1.5927 3.02988,-0.0486 0.48404,-1.4969 c 0.43303,-3.24017 2.15016,-5.72881 3.10582,-6.89969 2.57075,-0.2663 5.12407,-0.58858 7.65125,-0.979281 3.22772,1.438411 5.09296,5.474951 5.09296,5.474951 l 0.89838,1.49694 3.00127,-0.42929 0.2924,-1.54544 c 0.0247,-3.24267 1.39987,-5.921671 2.20367,-7.209551 2.52846,-0.58854 5.03075,-1.23808 7.51067,-1.94859 3.36835,1.03402 5.70887,4.788111 5.70887,4.788111 l 1.08133,1.36625 2.91913,-0.79884 0.10194,-1.570331 c -0.38324,-3.21526 0.64332,-6.04361 1.27666,-7.42355 2.43138,-0.90337 4.83166,-1.8652 7.2033,-2.87683 3.47412,0.601 6.27383,4.03654 6.27383,4.03654 l 1.2418,1.21444 2.7997,-1.15472 -0.0995,-1.57655 c -0.79012,-3.15555 -0.11463,-6.09711 0.34214,-7.54174 2.28208,-1.18957 4.53055,-2.44134 6.74294,-3.74039 3.53881,0.14673 6.76279,3.21403 6.76279,3.21403 l 1.38992,1.05643 2.63046,-1.4969 -0.29487,-1.54794 c -1.1846,-3.05478 -0.87477,-6.07595 -0.60099,-7.55917 2.09913,-1.455835 4.16221,-2.961451 6.18419,-4.523075 3.53882,-0.322381 7.14606,2.341805 7.14606,2.341805 l 1.50812,0.872266 2.42268,-1.814204 -0.48777,-1.501902 c -1.56035,-2.883041 -1.62882,-5.935356 -1.53923,-7.432254 1.89635,-1.70345 3.74911,-3.455439 5.56084,-5.253486 3.47286,-0.760251 7.38997,1.43098 7.38997,1.43098 l 1.60514,0.674393 2.1738,-2.105373 -0.66695,-1.425964 c -1.90877,-2.666549 -2.35919,-5.667822 -2.46246,-7.168463 1.67481,-1.933666 3.29741,-3.91336 4.87518,-5.92915 3.34472,-1.179592 7.49074,0.500234 7.49074,0.500234 l 1.68356,0.466609 1.89134,-2.362967 -0.84613,-1.327664 c -2.22233,-2.399044 -3.04607,-5.318172 -3.33473,-6.79641 1.42473,-2.135243 2.78724,-4.304071 4.10622,-6.51272 3.17298,-1.574076 7.47829,-0.433034 7.47829,-0.433034 l 1.72959,0.256433 1.58027,-2.583163 -1.00788,-1.214448 c -2.48864,-2.089215 -3.67073,-4.870252 -4.156,-6.304935 1.14478,-2.303206 2.2522,-4.641267 3.28496,-7.0054661 2.94904,-1.946079 7.34143,-1.355032 7.34143,-1.355032 l 1.74203,0.03594 1.24432,-2.758643 -1.14477,-1.080059 c -2.73749,-1.756955 -4.25555,-4.35384198 -4.91502,-5.727563 0.84614,-2.428885 1.6425,-4.885148 2.37665,-7.365065 2.67526,-2.3032159 7.105,-2.2683599 7.105,-2.2683599 l 1.74204,-0.179184 0.88344,-2.899268 -1.26918,-0.922007 c -2.93659,-1.408576 -4.77815,-3.802615 -5.59938,-5.075533 0.53503,-2.50232 1.00788,-5.029505 1.41847,-7.571647 2.3642,-2.640412 6.79395,-3.166772 6.79395,-3.166772 l 1.69227,-0.395677 0.52259,-2.983854 -1.38118,-0.756547 c -3.11076,-1.037766 -5.23852,-3.211559 -6.2091,-4.362551 0.21163,-2.525955 0.36087,-5.069327 0.44795,-7.627625 2.01578,-2.941521 6.37087,-4.027827 6.37087,-4.027827"
         style="fill:#666666;fill-opacity:1;fill-rule:nonzero;stroke:none;stroke-width:0.12443095"
         id="path9230"
         inkscape:connector-curvature="0" />
      <path
         d="m -439.8778,-161.92534 c -3.35595,-1.93755 -8.3301,0.40281 -10.26779,3.75898 l -1.66034,2.8758 c -1.37074,2.37419 -1.1806,5.20745 0.2248,7.34433 -0.25686,0.37623 -0.51341,0.75776 -0.74511,1.15908 l -32.99921,57.156303 c -1.87578,1.173922 -3.76902,2.431439 -5.7283,3.629809 l -100.4148,60.4904 c -16.30478,9.97399 -8.39071,31.0275836 0.47335,36.14525 l 122.90462,70.959015 c 8.86368,5.11745 31.04454,1.833593 31.53938,-17.662694 l 2.18253,-117.204828 c 0.0583,-2.296153 0.20069,-4.564461 0.27935,-6.775759 l 32.99921,-57.156306 c 0.23168,-0.40129 0.43389,-0.81417 0.63128,-1.2248 2.55348,0.14838 5.10212,-1.10349 6.47275,-3.47749 l 1.66035,-2.8758 c 1.93759,-3.35602 1.49632,-8.82319 -1.85955,-10.7607 z"
         inkscape:connector-curvature="0"
         style="fill:#2c2c29;fill-opacity:1;stroke-width:11.07125473"
         sodipodi:nodetypes="ssscscccsscccscssss"
         id="rect2985" />
      <g
         transform="matrix(0.60541825,0.34953838,-0.34953838,0.60541825,-853.24983,-925.43275)"
         style="fill:#ffffff"
         id="g3213">
        <path
           d="m 1080.3,768.8 h 31.307 c 12.456,0 16.531,11.607 22.483,22.611 l 70.701,130.71 c 14.28,26.399 -10.028,38.012 -22.484,38.012 h -172.71 c -12.456,0 -35.208,-14.489 -22.483,-38.012 l 70.701,-130.71 c 5.9522,-11.004 10.028,-22.611 22.483,-22.611 z"
           inkscape:connector-curvature="0"
           style="fill:#ffffff;stroke-width:25.79999924"
           sodipodi:nodetypes="sssssssss"
           id="path3201" />
        <rect
           x="1063.8"
           y="670.48999"
           width="64.230003"
           height="117.7"
           ry="0"
           style="fill:#ffffff;stroke-width:25.79999924"
           id="rect3203" />
        <rect
           x="-671.96002"
           y="1058.1"
           width="13.263"
           height="75.528999"
           ry="4.3000002"
           transform="rotate(-90)"
           style="fill:#ffffff;stroke-width:25.79999924"
           id="rect3205" />
      </g>
      <path
         inkscape:connector-curvature="0"
         style="fill:#7dac3e;fill-opacity:0.94117647;stroke-width:11.07125473"
         sodipodi:nodetypes="csssscc"
         d="m -448.13413,-37.152713 -3.33162,84.665674 c -0.72918,18.534976 -17.11331,17.246449 -23.77993,13.397475 L -567.68431,7.5409705 c -6.66662,-3.848977 -14.38582,-18.6651455 -0.28741,-27.2927595 l 69.05687,-42.259654 c 22.90502,28.711654 52.31482,2.644085 50.78125,24.859528 z"
         id="path3201-1" />
      <circle
         transform="rotate(29.999999)"
         style="fill:#ffffff;stroke-width:0.42911842"
         id="path3252"
         cx="-443.41876"
         cy="246.40457"
         r="12.743309" />
      <circle
         transform="rotate(29.999999)"
         style="fill:#ffffff;stroke-width:0.42911842"
         id="path3254"
         cx="-456.32156"
         cy="231.16164"
         r="7.5302849" />
      <circle
         transform="rotate(29.999999)"
         style="fill:#ffffff;stroke-width:0.42911842"
         id="path3256"
         cx="-423.50751"
         cy="216.49821"
         r="4.4409647" />
      <rect
         transform="rotate(29.999999)"
         x="-427.31683"
         y="95.61058"
         width="6.4711056"
         height="70.418327"
         ry="3.2355096"
         style="fill:#2c2c29;fill-opacity:1;stroke-width:0.42911842"
         id="rect3264" />
    </g>
  </g>
</svg>
